# AST/ASF file generated using VICON BodyLanguage
# -----------------------------------------------
:version 1.10
:name VICON
:units
  mass 1.0
  length 0.45
  angle deg
:documentation
   .ast/.asf automatically generated from VICON data using
   VICON BodyBuilder and BodyLanguage model FoxedUp or BRILLIANT.MOD
:root
   order TX TY TZ RX RY RZ
   axis XYZ
   position 0 0 0  
   orientation 0 0 0 
:bonedata
  begin
     id 1 
     name lhipjoint
     direction 0.577973 -0.728611 0.367523 
     length 2.48544 
     axis 0 0 0  XYZ
  end
  begin
     id 2 
     name lfemur
     direction 0.34202 -0.939693 0  
     length 7.1921  
     axis 0 0 20  XYZ
    dof rx ry rz
    limits (-160.0 20.0)
           (-70.0 70.0)
           (-60.0 70.0)
  end
  begin
     id 3 
     name ltibia
     direction 0.34202 -0.939693 0   
     length 7.71059   
     axis 0 0 20   XYZ
    dof rx
    limits (-10.0 170.0)
  end
  begin
     id 4 
     name lfoot
     direction 0.089538 -0.246004 0.965124   
     length 2.19909   
     axis -90 7.62852e-016 20   XYZ
    dof rx rz
    limits (-45.0 90.0)
           (-70.0 20.0)
  end
  begin
     id 5 
     name ltoes
     direction 1.53544e-011 -4.21829e-011 1   
     length 1.10116   
     axis -90 7.62852e-016 20   XYZ
    dof rx
    limits (-90.0 20.0)
  end
  begin
     id 6 
     name rhipjoint
     direction -0.554414 -0.743062 0.374812   
     length 2.4371  
     axis 0 0 0  XYZ 
  end
  begin
     id 7 
     name rfemur
     direction -0.34202 -0.939693 0   
     length 7.47254   
     axis 0 0 -20   XYZ
    dof rx ry rz
    limits (-160.0 20.0)
           (-70.0 70.0)
           (-70.0 60.0)
  end
  begin
     id 8 
     name rtibia
     direction -0.34202 -0.939693 0   
     length 7.65855   
     axis 0 0 -20   XYZ
    dof rx
    limits (-10.0 170.0)
 end
 begin
     id 9 
     name rfoot
     direction -0.133779 -0.367555 0.92033   
     length 2.43006  
     axis -90 -7.62852e-016 -20   XYZ
    dof rx rz
    limits (-45.0 90.0)
           (-20.0 70.0)
  end
  begin
     id 10 
     name rtoes
     direction -1.53563e-011 -4.21889e-011 1   
     length 1.19625   
     axis -90 -7.62852e-016 -20   XYZ
    dof rx
    limits (-90.0 20.0)
  end
  begin
     id 11 
     name lowerback
     direction 0.0249066 0.998043 -0.0573585   
     length 2.08485   
     axis 0 0 0   XYZ
    dof rx ry rz
    limits (-20.0 45.0)
           (-30.0 30.0)
           (-30.0 30.0)
  end
  begin
     id 12 
     name upperback
     direction 0.0237884 0.999673 0.00943178   
     length 2.08515   
     axis 0 0 0   XYZ
    dof rx ry rz
    limits (-20.0 45.0)
           (-30.0 30.0)
           (-30.0 30.0)
  end
  begin
     id 13 
     name thorax
     direction 0.0106671 0.999301 0.0358174   
     length 2.09037   
     axis 0 0 0   XYZ
    dof rx ry rz
    limits (-20.0 45.0)
           (-30.0 30.0)
           (-30.0 30.0)
  end
  begin
     id 14 
     name lowerneck
     direction -0.0580016 0.987052 0.149546   
     length 1.84454   
     axis 0 0 0   XYZ
    dof rx ry rz
    limits (-20.0 45.0)
           (-30.0 30.0)
           (-30.0 30.0)
  end
  begin
     id 15 
     name upperneck
     direction 0.079456 0.981963 -0.171567   
     length 1.88141   
     axis 0 0 0   XYZ
    dof rx ry rz
    limits (-20.0 45.0)
           (-30.0 30.0)
           (-30.0 30.0)
  end
  begin
     id 16
     name head
     direction 0.0262167 0.9967 -0.0768276  
     length 1.89541  
     axis 0 0 0   XYZ
    dof rx ry rz
    limits (-20.0 45.0)
           (-30.0 30.0)
           (-30.0 30.0)
  end
  begin
     id 17 
     name lclavicle
     direction 0.946135 0.322134 -0.0325326  
     length 3.949  
     axis 0 0 0   XYZ
    dof ry rz
    limits (-20.0 10.0)
           (0.0 20.0)
  end
  begin
     id 18 
     name lhumerus
     direction 1 -4.48964e-011 1.94005e-028   
     length 5.10995   
     axis 180 -30 -90   XYZ
    dof rx ry rz
    limits (-60.0 90.0)
           (-90.0 90.0)
           (-90.0 90.0)
  end
  begin
     id 19
     name lradius
     direction 1 -4.48976e-011 2.87852e-027   
     length 3.21207   
     axis 180 -30 -90   XYZ
    dof rx
    limits (-10.0 170.0)
  end
  begin
     id 20
     name lwrist
     direction 1 -4.48963e-011 1.9975e-027   
     length 1.60604   
     axis 2.96054e-016 90 90   XYZ
    dof ry
    limits (-180.0 0.0)
 end
  begin
     id 21 
     name lhand
     direction 1 -4.48919e-011 4.00227e-027   
     length 0.63349   
     axis -2.5488e-015 90 90   XYZ
    dof rx rz
    limits (-90.0 90.0)
           (-45.0 45.0)
  end
  begin
     id 22 
     name lfingers
     direction 1 -4.49037e-011 7.9652e-027   
     length 0.510736   
     axis -5.0975e-015 90 90   XYZ
    dof rx
    limits (0.0 90.0)
  end
  begin
     id 23
     name lthumb
     direction 0.707107 -6.34922e-011 0.707107   
     length 0.733318   
     axis -90 45 -4.48553e-014   XYZ
    dof rx rz
    limits (-45.0 45.0)
           (-45.0 45.0)
  end
  begin
     id 24 
     name rclavicle
     direction -0.940085 0.328911 -0.0897654   
     length 3.93848  
     axis 0 0 0   XYZ 
    dof ry rz
    limits (-10.0 20.0)
           (-20.0 0.0)
  end
  begin
     id 25 
     name rhumerus
     direction -1 -4.48958e-011 3.02044e-027  
     length 5.25109   
     axis 180 30 90   XYZ
    dof rx ry rz
    limits (-90.0 60.0)
           (-90.0 90.0)
           (-90.0 90.0)
  end
  begin
     id 26 
     name rradius
     direction -1 -4.4897e-011 9.78352e-028   
     length 3.28364   
     axis 180 30 90   XYZ
    dof rx
    limits (-10.0 170.0)
  end
  begin
     id 27 
     name rwrist
     direction -1 -4.48943e-011 1.99918e-027   
     length 1.64182   
     axis 2.96054e-016 -90 -90   XYZ
    dof ry
    limits (-180.0 0.0)
  end
  begin
     id 28
     name rhand
     direction -1 -4.49024e-011 3.98478e-027   
     length 0.599745   
     axis -2.5488e-015 -90 -90   XYZ
    dof rx rz
    limits (-90.0 90.0)
           (-45.0 45.0)
  end
  begin
     id 29
     name rfingers
     direction -1 -4.48914e-011 8.00621e-027   
     length 0.48353   
     axis -5.0975e-015 -90 -90   XYZ
    dof rx
    limits (0.0 90.0)
  end
  begin
     id 30
     name rthumb
     direction -0.707107 -6.34992e-011 0.707107   
     length 0.694255   
     axis -90 -45 4.48553e-014   XYZ
    dof rx rz
    limits (-45.0 45.0)
           (-45.0 45.0)
  end
:hierarchy
  begin
    root lhipjoint rhipjoint lowerback
    lhipjoint lfemur
    lfemur ltibia
    ltibia lfoot
    lfoot ltoes
    rhipjoint rfemur
    rfemur rtibia
    rtibia rfoot
    rfoot rtoes
    lowerback upperback
    upperback thorax
    thorax lowerneck lclavicle rclavicle
    lowerneck upperneck
    upperneck head
    lclavicle lhumerus
    lhumerus lradius
    lradius lwrist
    lwrist lhand lthumb
    lhand lfingers
    rclavicle rhumerus
    rhumerus rradius
    rradius rwrist
    rwrist rhand rthumb
    rhand rfingers
  end

#!OML:ASF E:\CV Data\Top Level 1\Subject 1\Session 1\player.ASF
:FULLY-SPECIFIED
:DEGREES
465
root 8.58794 17.147 -14.8506 19.0631 -31.96 -1.46322
lowerback 31.8858 -0.737053 0.329042
upperback 8.94224 -0.808393 3.18254
thorax -7.22698 -0.531369 3.71522
lowerneck -22.6439 -3.58616 -9.19301
upperneck 9.92317 -3.62435 9.74375
head 7.05694 -1.21672 4.26622
rclavicle -6.77856e-014 6.36111e-015
rhumerus 2.81917 30.1303 -92.08
rradius 56.2669
rwrist 1.25263
rhand -50.7098 34.9255
rfingers 7.12502
rthumb -23.2702 6.31168
lclavicle -6.77856e-014 6.36111e-015
lhumerus 6.90817 -19.4424 104.437
lradius 55.1105
lwrist 61.3153
lhand -16.6282 36.4212
lfingers 7.12502
lthumb 9.59408 66.1828
rfemur -45.5171 -1.18594 20.9391
rtibia 47.0196
rfoot -17.3737 -8.21103
rtoes 1.80927
lfemur -46.9593 10.2212 -17.1514
ltibia 28.777
lfoot 5.02205 0.193103
ltoes -2.59843
466
root 8.5934 17.1506 -14.8542 19.0732 -32.4207 -1.44242
lowerback 31.8609 -0.791956 0.308752
upperback 8.96417 -0.893817 3.13214
thorax -7.1859 -0.573741 3.69979
lowerneck -22.6363 -3.50613 -9.16021
upperneck 9.96101 -3.50907 9.6236
head 7.05274 -1.17105 4.23548
rclavicle -7.95139e-015 -4.4329e-014
rhumerus 2.44265 30.2174 -92.2271
rradius 56.5509
rwrist 1.15473
rhand -50.7048 34.6089
rfingers 7.12502
rthumb -23.2655 5.99448
lclavicle -7.95139e-015 -4.4329e-014
lhumerus 6.76945 -19.512 104.536
lradius 54.9969
lwrist 61.0711
lhand -16.6526 36.085
lfingers 7.12502
lthumb 9.57055 65.8476
rfemur -45.5747 -1.07435 20.8902
rtibia 46.938
rfoot -17.2907 -7.89525
rtoes 1.90985
lfemur -46.8689 10.3493 -17.1327
ltibia 28.7453
lfoot 5.0657 0.513148
ltoes -2.5451
467
root 8.59833 17.154 -14.8576 19.0683 -32.8607 -1.41598
lowerback 31.8152 -0.853537 0.294003
upperback 8.98433 -0.985184 3.08907
thorax -7.13694 -0.618947 3.69085
lowerneck -22.6308 -3.42443 -9.14722
upperneck 10.002 -3.3863 9.50891
head 7.04983 -1.12202 4.21082
rclavicle -9.34288e-015 1.21259e-014
rhumerus 2.1046 30.2862 -92.3616
rradius 56.8676
rwrist 1.11738
rhand -50.6498 34.2229
rfingers 7.12502
rthumb -23.2127 5.60174
lclavicle -9.34288e-015 1.21259e-014
lhumerus 6.67564 -19.5805 104.598
lradius 54.923
lwrist 60.7954
lhand -16.7119 35.7313
lfingers 7.12502
lthumb 9.51329 65.4965
rfemur -45.6142 -0.970506 20.8395
rtibia 46.8559
rfoot -17.2112 -7.59213
rtoes 2.00867
lfemur -46.7648 10.4605 -17.1123
ltibia 28.7108
lfoot 5.10881 0.830513
ltoes -2.48939
468
root 8.60263 17.1569 -14.861 19.0516 -33.2751 -1.38156
lowerback 31.7537 -0.911196 0.293166
upperback 8.9946 -1.06643 3.04977
thorax -7.09288 -0.659014 3.674
lowerneck -22.6115 -3.34811 -9.13574
upperneck 10.0374 -3.27162 9.39737
head 7.04399 -1.07702 4.18629
rclavicle -1.33186e-014 6.77856e-014
rhumerus 1.78141 30.2793 -92.4869
rradius 57.2205
rwrist 1.1806
rhand -50.532 33.7731
rfingers 7.12502
rthumb -23.0996 5.13774
lclavicle -1.33186e-014 6.77856e-014
lhumerus 6.59819 -19.6578 104.654
lradius 54.8986
lwrist 60.4967
lhand -16.8112 35.4449
lfingers 7.12502
lthumb 9.41749 65.2145
rfemur -45.645 -0.872493 20.7861
rtibia 46.7794
rfoot -17.1344 -7.3124
rtoes 2.07901
lfemur -46.6594 10.5629 -17.0984
ltibia 28.6786
lfoot 5.14922 1.13107
ltoes -2.4405
469
root 8.6062 17.1595 -14.8638 19.0193 -33.6769 -1.34807
lowerback 31.6802 -0.9602 0.29997
upperback 8.99928 -1.13359 3.01819
thorax -7.05059 -0.692324 3.65596
lowerneck -22.5952 -3.27557 -9.12272
upperneck 10.0784 -3.16193 9.28221
head 7.04098 -1.03459 4.15969
rclavicle -1.59028e-014 6.64935e-014
rhumerus 1.48221 30.2114 -92.5976
rradius 57.5967
rwrist 1.34931
rhand -50.3681 33.2693
rfingers 7.12502
rthumb -22.9423 4.61441
lclavicle -1.59028e-014 6.64935e-014
lhumerus 6.53693 -19.7235 104.707
lradius 54.9323
lwrist 60.2047
lhand -16.9603 35.2396
lfingers 7.12502
lthumb 9.27363 65.0157
rfemur -45.6565 -0.768779 20.7318
rtibia 46.7105
rfoot -17.0653 -7.05005
rtoes 2.14227
lfemur -46.538 10.6577 -17.0783
ltibia 28.652
lfoot 5.1827 1.4305
ltoes -2.40212
